<mxfile host="Electron" modified="2025-03-27T18:59:33.641Z" agent="Mozilla/5.0 (Macintosh; Intel Mac OS X 10_15_7) AppleWebKit/537.36 (KHTML, like Gecko) draw.io/21.3.7 Chrome/112.0.5615.204 Electron/24.5.0 Safari/537.36" etag="haqS_y2vd6g3Uimtv1YY" version="21.3.7" type="device">
  <diagram name="Seite-1" id="iafftJ65yptw8V-T6sjI">
    <mxGraphModel dx="1371" dy="1349" grid="1" gridSize="10" guides="1" tooltips="1" connect="1" arrows="1" fold="1" page="1" pageScale="1" pageWidth="4681" pageHeight="3300" math="0" shadow="0">
      <root>
        <mxCell id="0" />
        <mxCell id="1" parent="0" />
        <mxCell id="4afnX8yNVqXwM5urph45-35" value="" style="rounded=0;whiteSpace=wrap;html=1;" vertex="1" parent="1">
          <mxGeometry x="420" y="870" width="1230" height="860" as="geometry" />
        </mxCell>
        <mxCell id="4afnX8yNVqXwM5urph45-1" value="" style="rounded=0;whiteSpace=wrap;html=1;" vertex="1" parent="1">
          <mxGeometry x="440" y="900" width="560" height="340" as="geometry" />
        </mxCell>
        <mxCell id="4afnX8yNVqXwM5urph45-6" value="Class Loader" style="text;html=1;strokeColor=none;fillColor=none;align=center;verticalAlign=middle;whiteSpace=wrap;rounded=0;fontSize=17;fontStyle=1" vertex="1" parent="1">
          <mxGeometry x="667" y="906" width="110" height="30" as="geometry" />
        </mxCell>
        <mxCell id="4afnX8yNVqXwM5urph45-7" value="" style="rounded=0;whiteSpace=wrap;html=1;" vertex="1" parent="1">
          <mxGeometry x="460" y="970" width="140" height="250" as="geometry" />
        </mxCell>
        <mxCell id="4afnX8yNVqXwM5urph45-8" value="" style="rounded=0;whiteSpace=wrap;html=1;" vertex="1" parent="1">
          <mxGeometry x="650" y="970" width="140" height="250" as="geometry" />
        </mxCell>
        <mxCell id="4afnX8yNVqXwM5urph45-9" value="" style="rounded=0;whiteSpace=wrap;html=1;" vertex="1" parent="1">
          <mxGeometry x="840" y="970" width="140" height="250" as="geometry" />
        </mxCell>
        <mxCell id="4afnX8yNVqXwM5urph45-10" value="class loading" style="text;html=1;strokeColor=none;fillColor=none;align=center;verticalAlign=middle;whiteSpace=wrap;rounded=0;fontSize=14;" vertex="1" parent="1">
          <mxGeometry x="490" y="940" width="90" height="30" as="geometry" />
        </mxCell>
        <mxCell id="4afnX8yNVqXwM5urph45-11" value="linking" style="text;html=1;strokeColor=none;fillColor=none;align=center;verticalAlign=middle;whiteSpace=wrap;rounded=0;fontSize=14;" vertex="1" parent="1">
          <mxGeometry x="680" y="940" width="80" height="30" as="geometry" />
        </mxCell>
        <mxCell id="4afnX8yNVqXwM5urph45-12" value="initialization" style="text;html=1;strokeColor=none;fillColor=none;align=center;verticalAlign=middle;whiteSpace=wrap;rounded=0;fontSize=14;" vertex="1" parent="1">
          <mxGeometry x="860" y="940" width="80" height="30" as="geometry" />
        </mxCell>
        <mxCell id="4afnX8yNVqXwM5urph45-13" value=".class file (Bytecode)" style="rounded=0;whiteSpace=wrap;html=1;fontSize=23;" vertex="1" parent="1">
          <mxGeometry x="440" y="620" width="560" height="120" as="geometry" />
        </mxCell>
        <mxCell id="4afnX8yNVqXwM5urph45-14" value="" style="endArrow=classic;html=1;rounded=0;exitX=0.5;exitY=1;exitDx=0;exitDy=0;strokeWidth=3;entryX=0.5;entryY=0;entryDx=0;entryDy=0;" edge="1" parent="1" source="4afnX8yNVqXwM5urph45-13" target="4afnX8yNVqXwM5urph45-1">
          <mxGeometry width="50" height="50" relative="1" as="geometry">
            <mxPoint x="810" y="900" as="sourcePoint" />
            <mxPoint x="680" y="820" as="targetPoint" />
          </mxGeometry>
        </mxCell>
        <mxCell id="4afnX8yNVqXwM5urph45-15" value="" style="shape=flexArrow;endArrow=classic;html=1;rounded=0;exitX=1;exitY=0.5;exitDx=0;exitDy=0;entryX=0;entryY=0.5;entryDx=0;entryDy=0;" edge="1" parent="1" source="4afnX8yNVqXwM5urph45-7" target="4afnX8yNVqXwM5urph45-8">
          <mxGeometry width="50" height="50" relative="1" as="geometry">
            <mxPoint x="810" y="1080" as="sourcePoint" />
            <mxPoint x="860" y="1030" as="targetPoint" />
          </mxGeometry>
        </mxCell>
        <mxCell id="4afnX8yNVqXwM5urph45-16" value="" style="shape=flexArrow;endArrow=classic;html=1;rounded=0;exitX=1;exitY=0.5;exitDx=0;exitDy=0;entryX=0;entryY=0.5;entryDx=0;entryDy=0;" edge="1" parent="1">
          <mxGeometry width="50" height="50" relative="1" as="geometry">
            <mxPoint x="790" y="1094.7" as="sourcePoint" />
            <mxPoint x="840" y="1094.7" as="targetPoint" />
          </mxGeometry>
        </mxCell>
        <mxCell id="4afnX8yNVqXwM5urph45-25" value="" style="group" vertex="1" connectable="0" parent="1">
          <mxGeometry x="440" y="1300" width="1190" height="360" as="geometry" />
        </mxCell>
        <mxCell id="4afnX8yNVqXwM5urph45-3" value="" style="rounded=0;whiteSpace=wrap;html=1;" vertex="1" parent="4afnX8yNVqXwM5urph45-25">
          <mxGeometry width="1190.0000000000002" height="360" as="geometry" />
        </mxCell>
        <mxCell id="4afnX8yNVqXwM5urph45-17" value="&lt;meta charset=&quot;utf-8&quot; style=&quot;font-size: 18px;&quot;&gt;&lt;span style=&quot;color: rgb(0, 0, 0); font-family: Helvetica; font-size: 18px; font-style: normal; font-variant-ligatures: normal; font-variant-caps: normal; letter-spacing: normal; orphans: 2; text-align: center; text-indent: 0px; text-transform: none; widows: 2; word-spacing: 0px; -webkit-text-stroke-width: 0px; background-color: rgb(251, 251, 251); text-decoration-thickness: initial; text-decoration-style: initial; text-decoration-color: initial; float: none; display: inline !important;&quot;&gt;Runtime Data Areas&lt;/span&gt;" style="text;html=1;strokeColor=none;fillColor=none;align=center;verticalAlign=middle;whiteSpace=wrap;rounded=0;fontSize=18;fontStyle=1" vertex="1" parent="4afnX8yNVqXwM5urph45-25">
          <mxGeometry x="489.041095890411" y="4.235294117647059" width="195.6164383561644" height="31.764705882352942" as="geometry" />
        </mxCell>
        <mxCell id="4afnX8yNVqXwM5urph45-18" value="Heap" style="rounded=0;whiteSpace=wrap;html=1;fontSize=14;" vertex="1" parent="4afnX8yNVqXwM5urph45-25">
          <mxGeometry x="733.5616438356166" y="42.35294117647059" width="423.8356164383562" height="201.1764705882353" as="geometry" />
        </mxCell>
        <mxCell id="4afnX8yNVqXwM5urph45-19" value="PC Register" style="rounded=0;whiteSpace=wrap;html=1;fontSize=14;" vertex="1" parent="4afnX8yNVqXwM5urph45-25">
          <mxGeometry x="32.602739726027394" y="169.41176470588235" width="652.0547945205481" height="74.11764705882354" as="geometry" />
        </mxCell>
        <mxCell id="4afnX8yNVqXwM5urph45-20" value="Native Method Stack" style="rounded=0;whiteSpace=wrap;html=1;fontSize=14;" vertex="1" parent="4afnX8yNVqXwM5urph45-25">
          <mxGeometry x="423.8356164383562" y="42.35294117647059" width="260.82191780821915" height="116.47058823529412" as="geometry" />
        </mxCell>
        <mxCell id="4afnX8yNVqXwM5urph45-21" value="Stack" style="rounded=0;whiteSpace=wrap;html=1;fontSize=14;" vertex="1" parent="4afnX8yNVqXwM5urph45-25">
          <mxGeometry x="32.602739726027394" y="42.35294117647059" width="358.6301369863014" height="116.47058823529412" as="geometry" />
        </mxCell>
        <mxCell id="4afnX8yNVqXwM5urph45-22" value="元空间" style="rounded=0;whiteSpace=wrap;html=1;fontSize=14;" vertex="1" parent="4afnX8yNVqXwM5urph45-25">
          <mxGeometry x="32.602739726027394" y="254.11764705882354" width="1124.7945205479452" height="84.70588235294117" as="geometry" />
        </mxCell>
        <mxCell id="4afnX8yNVqXwM5urph45-23" value="常量池" style="rounded=0;whiteSpace=wrap;html=1;fontSize=14;" vertex="1" parent="4afnX8yNVqXwM5urph45-25">
          <mxGeometry x="945.4794520547946" y="264.70588235294116" width="195.6164383561644" height="63.529411764705884" as="geometry" />
        </mxCell>
        <mxCell id="4afnX8yNVqXwM5urph45-24" value="字符串&lt;br style=&quot;font-size: 14px;&quot;&gt;常量池" style="rounded=0;whiteSpace=wrap;html=1;fontSize=14;" vertex="1" parent="4afnX8yNVqXwM5urph45-25">
          <mxGeometry x="1010.6849315068492" y="180" width="130.41095890410958" height="42.35294117647059" as="geometry" />
        </mxCell>
        <mxCell id="4afnX8yNVqXwM5urph45-31" value="" style="group;fontSize=17;fontStyle=1" vertex="1" connectable="0" parent="1">
          <mxGeometry x="1080" y="900" width="550" height="340" as="geometry" />
        </mxCell>
        <mxCell id="4afnX8yNVqXwM5urph45-2" value="" style="rounded=0;whiteSpace=wrap;html=1;" vertex="1" parent="4afnX8yNVqXwM5urph45-31">
          <mxGeometry width="550" height="340" as="geometry" />
        </mxCell>
        <mxCell id="4afnX8yNVqXwM5urph45-26" value="Excution Engine" style="text;html=1;strokeColor=none;fillColor=none;align=center;verticalAlign=middle;whiteSpace=wrap;rounded=0;fontSize=17;fontStyle=1" vertex="1" parent="4afnX8yNVqXwM5urph45-31">
          <mxGeometry x="203.75" y="4" width="142.5" height="30" as="geometry" />
        </mxCell>
        <mxCell id="4afnX8yNVqXwM5urph45-27" value="interpreter" style="rounded=0;whiteSpace=wrap;html=1;fontSize=14;" vertex="1" parent="4afnX8yNVqXwM5urph45-31">
          <mxGeometry x="20" y="70" width="110" height="250" as="geometry" />
        </mxCell>
        <mxCell id="4afnX8yNVqXwM5urph45-28" value="Garbage Collection" style="rounded=0;whiteSpace=wrap;html=1;fontSize=14;" vertex="1" parent="4afnX8yNVqXwM5urph45-31">
          <mxGeometry x="420" y="70" width="110" height="250" as="geometry" />
        </mxCell>
        <mxCell id="4afnX8yNVqXwM5urph45-29" value="" style="rounded=0;whiteSpace=wrap;html=1;" vertex="1" parent="4afnX8yNVqXwM5urph45-31">
          <mxGeometry x="150" y="70" width="250" height="250" as="geometry" />
        </mxCell>
        <mxCell id="4afnX8yNVqXwM5urph45-30" value="JIT Compiler" style="text;html=1;strokeColor=none;fillColor=none;align=center;verticalAlign=middle;whiteSpace=wrap;rounded=0;fontSize=14;" vertex="1" parent="4afnX8yNVqXwM5urph45-31">
          <mxGeometry x="230" y="70" width="90" height="30" as="geometry" />
        </mxCell>
        <mxCell id="4afnX8yNVqXwM5urph45-32" value="" style="endArrow=classic;html=1;rounded=0;exitX=1;exitY=0.5;exitDx=0;exitDy=0;entryX=0;entryY=0.5;entryDx=0;entryDy=0;strokeWidth=3;" edge="1" parent="1" source="4afnX8yNVqXwM5urph45-1" target="4afnX8yNVqXwM5urph45-2">
          <mxGeometry width="50" height="50" relative="1" as="geometry">
            <mxPoint x="1120" y="1280" as="sourcePoint" />
            <mxPoint x="1170" y="1230" as="targetPoint" />
          </mxGeometry>
        </mxCell>
        <mxCell id="4afnX8yNVqXwM5urph45-33" value="" style="endArrow=classic;html=1;rounded=0;exitX=0.5;exitY=1;exitDx=0;exitDy=0;strokeWidth=3;" edge="1" parent="1" source="4afnX8yNVqXwM5urph45-1">
          <mxGeometry width="50" height="50" relative="1" as="geometry">
            <mxPoint x="670" y="1280" as="sourcePoint" />
            <mxPoint x="720" y="1300" as="targetPoint" />
          </mxGeometry>
        </mxCell>
        <mxCell id="4afnX8yNVqXwM5urph45-34" value="" style="endArrow=classic;html=1;rounded=0;strokeWidth=3;entryX=0.5;entryY=1;entryDx=0;entryDy=0;" edge="1" parent="1" target="4afnX8yNVqXwM5urph45-2">
          <mxGeometry width="50" height="50" relative="1" as="geometry">
            <mxPoint x="1355" y="1300" as="sourcePoint" />
            <mxPoint x="1290" y="1350" as="targetPoint" />
          </mxGeometry>
        </mxCell>
        <mxCell id="4afnX8yNVqXwM5urph45-36" value="JVM" style="text;html=1;strokeColor=none;fillColor=none;align=center;verticalAlign=middle;whiteSpace=wrap;rounded=0;fontSize=25;fontStyle=1" vertex="1" parent="1">
          <mxGeometry x="1040" y="1680" width="60" height="30" as="geometry" />
        </mxCell>
        <mxCell id="4afnX8yNVqXwM5urph45-38" value=".java" style="rounded=0;whiteSpace=wrap;html=1;fontSize=23;" vertex="1" parent="1">
          <mxGeometry x="440" y="400" width="560" height="120" as="geometry" />
        </mxCell>
        <mxCell id="4afnX8yNVqXwM5urph45-39" value="" style="endArrow=classic;html=1;rounded=0;exitX=0.5;exitY=1;exitDx=0;exitDy=0;strokeWidth=3;entryX=0.5;entryY=0;entryDx=0;entryDy=0;" edge="1" parent="1" source="4afnX8yNVqXwM5urph45-38" target="4afnX8yNVqXwM5urph45-13">
          <mxGeometry width="50" height="50" relative="1" as="geometry">
            <mxPoint x="719.44" y="530" as="sourcePoint" />
            <mxPoint x="719" y="620" as="targetPoint" />
          </mxGeometry>
        </mxCell>
        <mxCell id="4afnX8yNVqXwM5urph45-40" value="Compile" style="text;html=1;align=center;verticalAlign=middle;resizable=0;points=[];autosize=1;strokeColor=none;fillColor=none;fontSize=14;" vertex="1" parent="1">
          <mxGeometry x="730" y="548" width="70" height="30" as="geometry" />
        </mxCell>
      </root>
    </mxGraphModel>
  </diagram>
</mxfile>
